HIERARCHY
ROOT Hips
{
	OFFSET 0.000000 83.214638 0.000000
	CHANNELS 6 Xposition Yposition Zposition Xrotation Yrotation Zrotation
	JOINT Pelvis
	{
		OFFSET 0.000000 0.000000 0.000000
		CHANNELS 3 Xrotation Yrotation Zrotation
		JOINT LeftUpLeg
		{
			OFFSET 8.479700 -4.795502 -0.379100
			CHANNELS 3 Xrotation Yrotation Zrotation
			JOINT LeftLeg
			{
				OFFSET 0.024144 -32.555107 0.112900
				CHANNELS 3 Xrotation Yrotation Zrotation
				JOINT LeftFoot
				{
					OFFSET -0.024144 -32.638630 -3.012600
					CHANNELS 3 Xrotation Yrotation Zrotation
					JOINT LeftToeBase
					{
						OFFSET 0.970200 -13.225400 11.864200
						CHANNELS 3 Xrotation Yrotation Zrotation
						End Site
						{
							OFFSET 0.000000 12.319262 0.000000
						}
					}
					JOINT LFootTongue
					{
						OFFSET 1.142400 -1.059800 6.665200
						CHANNELS 3 Xrotation Yrotation Zrotation
						End Site
						{
							OFFSET 0.000000 12.319262 0.000000
						}
					}
				}
				JOINT LeftPantLeg
				{
					OFFSET 0.918482 -16.533964 -2.284700
					CHANNELS 3 Xrotation Yrotation Zrotation
					End Site
					{
						OFFSET 0.350399 24.744368 0.000000
					}
				}
			}
		}
		JOINT RightUpLeg
		{
			OFFSET -8.479700 -4.795502 -0.379100
			CHANNELS 3 Xrotation Yrotation Zrotation
			JOINT RightLeg
			{
				OFFSET -0.023144 -32.555092 0.112900
				CHANNELS 3 Xrotation Yrotation Zrotation
				JOINT RightFoot
				{
					OFFSET 0.023144 -32.638641 -3.012700
					CHANNELS 3 Xrotation Yrotation Zrotation
					JOINT RightToeBase
					{
						OFFSET -0.970200 -13.225400 11.864200
						CHANNELS 3 Xrotation Yrotation Zrotation
						End Site
						{
							OFFSET 0.000000 12.319244 0.000000
						}
					}
					JOINT RFootTongue
					{
						OFFSET -1.142200 -1.059800 6.665200
						CHANNELS 3 Xrotation Yrotation Zrotation
						End Site
						{
							OFFSET 0.000000 12.319243 0.000000
						}
					}
				}
				JOINT RightPantLeg
				{
					OFFSET -0.919482 -16.533978 -2.284800
					CHANNELS 3 Xrotation Yrotation Zrotation
					End Site
					{
						OFFSET -0.350400 24.744419 0.000000
					}
				}
			}
		}
	}
	JOINT Spine
	{
		OFFSET 0.000000 7.722000 1.166200
		CHANNELS 3 Xrotation Yrotation Zrotation
		JOINT Spine1
		{
			OFFSET 0.000000 12.024101 0.248800
			CHANNELS 3 Xrotation Yrotation Zrotation
			JOINT Spine2
			{
				OFFSET 0.000000 11.502998 -0.491200
				CHANNELS 3 Xrotation Yrotation Zrotation
				JOINT Neck
				{
					OFFSET 0.000000 18.430702 -3.123100
					CHANNELS 3 Xrotation Yrotation Zrotation
					JOINT Head
					{
						OFFSET 0.000000 9.051102 1.034000
						CHANNELS 3 Xrotation Yrotation Zrotation
						JOINT HairB
						{
							OFFSET 0.208400 24.786102 24.822300
							CHANNELS 3 Xrotation Yrotation Zrotation
							End Site
							{
								OFFSET 0.000000 32.263779 0.000000
							}
						}
						JOINT HairA
						{
							OFFSET -7.081100 24.428299 23.196600
							CHANNELS 3 Xrotation Yrotation Zrotation
							End Site
							{
								OFFSET 0.000000 32.263779 0.000000
							}
						}
						JOINT Hat
						{
							OFFSET 16.728800 15.048294 -15.439601
							CHANNELS 3 Xrotation Yrotation Zrotation
							End Site
							{
								OFFSET 0.000000 32.263779 0.000000
							}
						}
					}
				}
				JOINT LeftShoulder
				{
					OFFSET 6.197800 13.665199 -4.064700
					CHANNELS 3 Xrotation Yrotation Zrotation
					JOINT LeftArm
					{
						OFFSET 7.778100 -0.187103 -1.709300
						CHANNELS 3 Xrotation Yrotation Zrotation
						JOINT LeftForeArm
						{
							OFFSET 22.049376 0.000000 0.000000
							CHANNELS 3 Xrotation Yrotation Zrotation
							JOINT LeftHand
							{
								OFFSET 23.009392 0.000000 0.000000
								CHANNELS 3 Xrotation Yrotation Zrotation
								JOINT LeftHandThumb1
								{
									OFFSET 3.507191 -2.063065 3.133727
									CHANNELS 3 Xrotation Yrotation Zrotation
									JOINT LeftHandThumb2
									{
										OFFSET 3.101337 -1.790558 1.790558
										CHANNELS 3 Xrotation Yrotation Zrotation
										JOINT LeftHandThumb3
										{
											OFFSET 3.058640 -1.765907 1.765906
											CHANNELS 3 Xrotation Yrotation Zrotation
											End Site
											{
												OFFSET -0.415260 3.926476 -0.049563
											}
										}
									}
								}
								JOINT LeftHandIndex1
								{
									OFFSET 11.334419 -0.901459 3.706815
									CHANNELS 3 Xrotation Yrotation Zrotation
									JOINT LeftHandIndex2
									{
										OFFSET 3.283112 0.000000 0.000000
										CHANNELS 3 Xrotation Yrotation Zrotation
										JOINT LeftHandIndex3
										{
											OFFSET 3.323853 0.000000 0.000000
											CHANNELS 3 Xrotation Yrotation Zrotation
											End Site
											{
												OFFSET -1.135597 3.097809 0.402452
											}
										}
									}
								}
								JOINT LeftHandMiddle1
								{
									OFFSET 11.335861 0.000000 0.000000
									CHANNELS 3 Xrotation Yrotation Zrotation
									JOINT LeftHandMiddle2
									{
										OFFSET 3.410492 0.000000 0.000000
										CHANNELS 3 Xrotation Yrotation Zrotation
										JOINT LeftHandMiddle3
										{
											OFFSET 3.312172 0.000000 0.000000
											CHANNELS 3 Xrotation Yrotation Zrotation
											End Site
											{
												OFFSET -1.150200 3.080154 0.400270
											}
										}
									}
								}
								JOINT LeftHandRing1
								{
									OFFSET 11.514786 -0.013176 -3.003090
									CHANNELS 3 Xrotation Yrotation Zrotation
									JOINT LeftHandRing2
									{
										OFFSET 3.053307 0.000000 0.000000
										CHANNELS 3 Xrotation Yrotation Zrotation
										JOINT LeftHandRing3
										{
											OFFSET 3.295807 0.000000 0.000000
											CHANNELS 3 Xrotation Yrotation Zrotation
											End Site
											{
												OFFSET -1.281006 3.013344 0.375733
											}
										}
									}
								}
								JOINT LeftHandPinky1
								{
									OFFSET 10.518692 -0.960396 -5.730441
									CHANNELS 3 Xrotation Yrotation Zrotation
									JOINT LeftHandPinky2
									{
										OFFSET 2.861649 0.000000 0.000000
										CHANNELS 3 Xrotation Yrotation Zrotation
										JOINT LeftHandPinky3
										{
											OFFSET 2.863380 0.000000 0.000000
											CHANNELS 3 Xrotation Yrotation Zrotation
											End Site
											{
												OFFSET -0.843597 2.711159 0.369971
											}
										}
									}
								}
							}
							JOINT LSleeve
							{
								OFFSET 6.676277 -0.344902 -1.011730
								CHANNELS 3 Xrotation Yrotation Zrotation
								End Site
								{
									OFFSET 0.000000 14.885353 0.000000
								}
							}
						}
					}
				}
				JOINT RightShoulder
				{
					OFFSET -6.197800 13.665199 -4.064700
					CHANNELS 3 Xrotation Yrotation Zrotation
					JOINT RightArm
					{
						OFFSET -7.778100 -0.187103 -1.709300
						CHANNELS 3 Xrotation Yrotation Zrotation
						JOINT RightForeArm
						{
							OFFSET -22.049376 0.000000 0.000000
							CHANNELS 3 Xrotation Yrotation Zrotation
							JOINT RightHand
							{
								OFFSET -23.009392 0.000000 0.000000
								CHANNELS 3 Xrotation Yrotation Zrotation
								JOINT RightHandThumb1
								{
									OFFSET -3.507191 -2.063065 3.133727
									CHANNELS 3 Xrotation Yrotation Zrotation
									JOINT RightHandThumb2
									{
										OFFSET -3.101337 -1.790558 1.790558
										CHANNELS 3 Xrotation Yrotation Zrotation
										JOINT RightHandThumb3
										{
											OFFSET -3.058640 -1.765907 1.765906
											CHANNELS 3 Xrotation Yrotation Zrotation
											End Site
											{
												OFFSET 0.415260 3.926476 -0.049563
											}
										}
									}
								}
								JOINT RightHandIndex1
								{
									OFFSET -11.334419 -0.901459 3.706815
									CHANNELS 3 Xrotation Yrotation Zrotation
									JOINT RightHandIndex2
									{
										OFFSET -3.283112 0.000000 0.000000
										CHANNELS 3 Xrotation Yrotation Zrotation
										JOINT RightHandIndex3
										{
											OFFSET -3.323853 0.000000 0.000000
											CHANNELS 3 Xrotation Yrotation Zrotation
											End Site
											{
												OFFSET 1.135597 3.097809 0.402452
											}
										}
									}
								}
								JOINT RightHandMiddle1
								{
									OFFSET -11.335861 0.000000 0.000000
									CHANNELS 3 Xrotation Yrotation Zrotation
									JOINT RightHandMiddle2
									{
										OFFSET -3.410492 0.000000 0.000000
										CHANNELS 3 Xrotation Yrotation Zrotation
										JOINT RightHandMiddle3
										{
											OFFSET -3.312172 0.000000 0.000000
											CHANNELS 3 Xrotation Yrotation Zrotation
											End Site
											{
												OFFSET 1.150200 3.080154 0.400270
											}
										}
									}
								}
								JOINT RightHandRing1
								{
									OFFSET -11.514786 -0.013176 -3.003090
									CHANNELS 3 Xrotation Yrotation Zrotation
									JOINT RightHandRing2
									{
										OFFSET -3.053307 0.000000 0.000000
										CHANNELS 3 Xrotation Yrotation Zrotation
										JOINT RightHandRing3
										{
											OFFSET -3.295807 0.000000 0.000000
											CHANNELS 3 Xrotation Yrotation Zrotation
											End Site
											{
												OFFSET 1.281006 3.013344 0.375733
											}
										}
									}
								}
								JOINT RightHandPinky1
								{
									OFFSET -10.518692 -0.960396 -5.730441
									CHANNELS 3 Xrotation Yrotation Zrotation
									JOINT RightHandPinky2
									{
										OFFSET -2.861649 0.000000 0.000000
										CHANNELS 3 Xrotation Yrotation Zrotation
										JOINT RightHandPinky3
										{
											OFFSET -2.863380 0.000000 0.000000
											CHANNELS 3 Xrotation Yrotation Zrotation
											End Site
											{
												OFFSET 0.843597 2.711159 0.369971
											}
										}
									}
								}
							}
							JOINT RSleeve
							{
								OFFSET -6.676277 -0.344902 -1.011730
								CHANNELS 3 Xrotation Yrotation Zrotation
								End Site
								{
									OFFSET 0.000000 14.885353 0.000000
								}
							}
						}
					}
				}
				JOINT Backpack
				{
					OFFSET 0.000000 -2.471497 36.677502
					CHANNELS 3 Xrotation Yrotation Zrotation
					End Site
					{
						OFFSET 0.000000 20.427315 0.000000
					}
				}
				JOINT Hood
				{
					OFFSET 0.000000 18.754097 -10.431000
					CHANNELS 3 Xrotation Yrotation Zrotation
					JOINT Hood1
					{
						OFFSET 0.000000 -5.011002 -7.685901
						CHANNELS 3 Xrotation Yrotation Zrotation
						End Site
						{
							OFFSET 0.000000 9.175140 0.000000
						}
					}
				}
				JOINT LHoodieString
				{
					OFFSET 5.250500 16.397697 3.089900
					CHANNELS 3 Xrotation Yrotation Zrotation
					JOINT LHoodieString1
					{
						OFFSET 0.257700 -6.364304 3.694600
						CHANNELS 3 Xrotation Yrotation Zrotation
						JOINT LHoodieString2
						{
							OFFSET 0.000000 -9.643799 2.679100
							CHANNELS 3 Xrotation Yrotation Zrotation
							End Site
							{
								OFFSET 0.000000 10.009018 0.000000
							}
						}
					}
				}
				JOINT RHoodieString
				{
					OFFSET -5.250500 16.397697 3.089900
					CHANNELS 3 Xrotation Yrotation Zrotation
					JOINT RHoodieString1
					{
						OFFSET -0.257700 -6.364304 3.694600
						CHANNELS 3 Xrotation Yrotation Zrotation
						JOINT RHoodieString2
						{
							OFFSET 0.000000 -9.643799 2.679100
							CHANNELS 3 Xrotation Yrotation Zrotation
							End Site
							{
								OFFSET 0.000000 10.009018 0.000000
							}
						}
					}
				}
			}
			JOINT LBackpack_Strap
			{
				OFFSET 15.223200 -7.719803 -6.610900
				CHANNELS 3 Xrotation Yrotation Zrotation
				End Site
				{
					OFFSET 0.000000 16.040596 0.000000
				}
			}
			JOINT RBackpack_Strap
			{
				OFFSET -15.223000 -7.719803 -6.610900
				CHANNELS 3 Xrotation Yrotation Zrotation
				End Site
				{
					OFFSET 0.000000 16.040596 0.000000
				}
			}
		}
	}
	JOINT BoyFacialAnim_Joint
	{
		OFFSET 1.000000 -82.208099 -1.550900
		CHANNELS 3 Xrotation Yrotation Zrotation
		End Site
		{
			OFFSET 0.000000 30.012791 0.000000
		}
	}
}
MOTION
Frames: 4
Frame Time: 0.033333
0.829084 74.989296 -0.424583 9.545370 -61.619371 10.152444 0.000000 -0.000000 -0.000000 -36.689980 11.886152 23.487451 36.108662 -6.746664 1.192077 -5.486972 -2.265429 -16.037477 0.000000 0.000000 -0.000000 0.000000 0.000000 0.000000 0.000001 0.000000 0.000001 -31.264330 -19.562963 -32.364906 35.167302 3.480991 -4.079253 -11.011710 0.860852 22.482710 -0.000000 -0.000000 -0.000000 -0.000000 -0.000000 -0.000000 -0.000002 -0.000000 0.000000 15.067054 -0.323358 -4.285171 5.871157 0.566998 -2.800554 5.878153 0.648698 -2.855490 -3.637131 1.454180 3.748115 -20.005110 54.834063 2.407568 0.000000 0.000000 0.000001 0.000000 0.000000 0.000001 0.000000 0.000000 0.000001 1.825744 -3.190432 -12.271322 -39.392085 26.353607 -34.908568 0.399653 -46.807040 0.391501 -10.317227 -0.131335 0.363344 40.109903 -15.297185 -0.360519 5.639884 28.097909 11.338829 -0.000000 -0.000001 -0.000000 6.882234 2.840063 -61.140445 8.248001 7.640043 -89.897871 -0.000004 -0.000003 -0.000002 -2.345555 4.688877 -62.655217 8.754123 9.897099 -87.051301 0.000002 -0.000001 -0.000000 -9.042476 10.045651 -60.766171 8.524056 9.508850 -66.893042 -0.000002 -0.000002 -0.000003 -17.946947 14.755029 -51.485874 8.868465 8.667023 -84.812009 0.000001 0.000002 0.000000 0.000002 0.000000 0.000002 0.631488 7.257347 8.703739 7.936705 -9.680764 53.429578 -22.865494 36.189429 17.962914 -27.375449 10.434168 -17.813039 -2.346174 -6.100456 10.731428 2.364081 -23.806327 -8.771077 0.000000 0.000001 0.000003 -0.054759 0.532143 0.738723 0.019749 -0.087305 5.078525 -0.000000 -0.000001 0.000005 0.348246 -5.918529 2.583815 1.432609 -4.204181 24.052103 0.000003 0.000001 0.000002 1.205808 -11.756080 4.154767 1.794874 -3.771852 26.865419 0.000000 0.000003 -0.000001 2.126217 -19.166829 11.319922 3.354787 -2.122251 18.828549 -0.000000 -0.000000 0.000000 -0.000003 0.000000 -0.000001 0.000001 -0.000001 -0.000000 0.000001 -0.000001 -0.000000 0.000001 -0.000001 -0.000000 0.000001 -0.000001 -0.000000 0.000001 -0.000001 -0.000000 -0.000000 0.000001 -0.000001 0.000001 -0.000001 -0.000000 0.000001 -0.000001 -0.000000 -0.000000 0.000001 -0.000001 0.000001 -0.000001 -0.000000 0.000001 -0.000001 -0.000000 0.000000 -0.000000 -0.000000 
-0.169334 75.265808 -0.373958 1.899502 -61.696047 5.562110 0.000000 0.000000 -0.000000 -30.712267 14.388550 21.842873 33.440196 -7.872150 1.013933 -5.206705 -2.299661 -16.136318 0.000000 0.000000 0.000000 0.000000 0.000000 0.000000 0.000001 -0.000001 0.000000 -27.925066 -20.111659 -35.142085 35.264765 4.690661 -3.990487 -12.168384 0.641518 22.421250 -0.000000 0.000000 0.000000 -0.000000 0.000000 0.000000 -0.000000 -0.000000 -0.000003 13.033964 -0.049025 -2.865656 5.333192 0.623429 -2.523731 5.299358 0.657631 -2.564139 4.234371 0.397259 2.408173 -21.083244 54.853601 1.165594 -0.000000 -0.000000 -0.000001 -0.000000 -0.000000 -0.000001 -0.000000 -0.000000 -0.000001 1.710034 -2.594750 -12.857051 -38.379178 26.562684 -36.227911 0.411766 -43.645056 0.337768 -10.170587 1.615593 0.825218 40.109900 -15.297185 -0.360524 5.639881 28.097913 11.338826 -0.000001 -0.000001 0.000002 6.882230 2.840064 -61.140445 8.248000 7.640044 -89.897878 0.000001 0.000002 -0.000005 -2.345554 4.688882 -62.655224 8.754124 9.897090 -87.051301 0.000002 -0.000003 -0.000002 -9.042481 10.045654 -60.766171 8.524053 9.508855 -66.893035 0.000003 0.000001 -0.000002 -17.946947 14.755032 -51.485877 8.868469 8.667017 -84.812016 0.000002 -0.000001 -0.000002 0.000000 0.000002 -0.000002 0.719721 7.065578 9.029681 7.253232 -11.566396 51.119922 -22.121798 33.819193 16.816161 -24.949219 5.943045 -14.086757 -1.772097 -6.212464 11.525935 2.371769 -23.830677 -8.776133 0.000000 -0.000000 -0.000001 -0.053850 1.293510 -4.032535 0.034240 -0.221956 6.010239 0.000000 -0.000001 0.000003 0.313718 -5.528871 0.181551 1.422189 -4.197799 23.767673 0.000001 0.000001 -0.000004 1.202226 -11.772210 4.237654 1.838024 -3.866414 27.429111 0.000000 -0.000001 0.000004 2.170189 -19.198535 11.616649 3.357038 -2.169586 18.906363 -0.000000 0.000000 -0.000003 -0.000001 -0.000000 -0.000000 -0.000000 -0.000002 -0.000001 -0.000000 -0.000002 -0.000001 -0.000000 -0.000002 -0.000001 -0.000000 -0.000002 -0.000001 -0.000000 -0.000002 -0.000000 -0.000002 0.000001 -0.000001 -0.000000 -0.000002 -0.000001 -0.000000 -0.000002 -0.000000 -0.000002 0.000001 -0.000001 -0.000000 -0.000001 -0.000001 -0.000000 -0.000001 -0.000001 0.000000 0.000000 -0.000000 
-1.169528 75.552025 -0.289361 -5.678750 -61.263518 0.953300 0.000000 0.000002 -0.000000 -24.546093 16.747795 20.048907 30.368346 -9.279439 0.793563 -4.665612 -2.370391 -16.187137 -0.000000 0.000002 -0.000000 -0.000000 0.000002 -0.000000 0.000000 -0.000001 0.000001 -24.252882 -20.952705 -37.805804 34.842031 5.587178 -3.883397 -13.119666 0.431266 22.503877 -0.000000 -0.000000 0.000000 -0.000000 -0.000000 0.000000 0.000001 -0.000000 -0.000002 10.789816 0.216425 -1.403574 4.675174 0.676836 -2.238825 4.630175 0.667795 -2.265234 5.628518 -0.181868 3.356638 -28.964462 52.957961 4.224163 -0.000000 -0.000000 -0.000000 -0.000000 -0.000000 -0.000000 -0.000000 -0.000000 -0.000000 1.744302 -1.524080 -13.369597 -36.433178 26.616081 -37.687611 0.410705 -41.570341 0.296891 -9.629712 5.950166 1.800175 40.109903 -15.297187 -0.360524 5.639881 28.097913 11.338825 0.000000 0.000002 -0.000001 6.882233 2.840059 -61.140452 8.248001 7.640048 -89.897878 -0.000004 -0.000001 -0.000002 -2.345552 4.688876 -62.655217 8.754119 9.897094 -87.051294 0.000002 -0.000001 -0.000000 -9.042478 10.045651 -60.766171 8.524051 9.508852 -66.893042 0.000002 -0.000002 -0.000002 -17.946949 14.755029 -51.485870 8.868464 8.667023 -84.812016 -0.000002 -0.000000 -0.000000 -0.000001 -0.000001 0.000002 0.852287 6.592852 9.855677 7.895276 -13.245179 48.564506 -21.110667 30.064638 14.902518 -23.885756 1.548288 -10.939706 -0.678361 -6.415779 13.009431 2.404684 -23.967713 -8.803246 -0.000000 -0.000000 -0.000003 0.031007 2.055440 -8.805428 0.077156 -0.560037 8.354617 0.000000 0.000002 0.000002 0.313050 -5.180299 -1.932042 1.423501 -4.208012 23.665405 0.000001 0.000001 -0.000002 1.243518 -11.795816 4.729492 1.887917 -3.980627 28.132438 -0.000002 0.000001 -0.000001 2.194107 -19.292564 12.210541 3.371583 -2.285333 19.380911 -0.000000 -0.000000 -0.000002 -0.000000 0.000002 -0.000002 0.000001 0.000004 -0.000001 0.000001 0.000004 -0.000001 0.000001 0.000004 -0.000001 0.000001 0.000004 -0.000001 0.000001 0.000004 -0.000002 -0.000001 0.000002 -0.000000 0.000001 0.000004 -0.000001 0.000001 0.000004 -0.000002 -0.000001 0.000002 -0.000000 -0.000001 -0.000002 0.000000 -0.000001 -0.000002 0.000000 0.000000 0.000002 -0.000000 
-2.164267 75.832489 -0.177378 -13.070247 -60.472241 -3.443787 0.000000 -0.000000 0.000000 -18.031479 18.988518 18.047771 26.816590 -9.325074 0.655836 -3.871152 -3.965345 -16.504054 -0.000000 -0.000000 0.000000 -0.000000 -0.000000 -0.000000 0.000001 0.000002 0.000000 -20.378889 -22.016580 -40.445481 34.027087 6.306774 -3.756101 -13.894315 0.230224 22.691111 0.000000 0.000000 0.000000 0.000000 0.000000 0.000000 0.000000 -0.000001 0.000000 8.492826 0.373533 0.079068 3.957935 0.671258 -1.941730 3.916353 0.633850 -1.956441 0.560355 -0.462493 6.667594 -42.277129 48.978945 11.854940 0.000001 0.000000 -0.000000 0.000001 0.000000 -0.000000 0.000001 0.000000 -0.000000 1.761669 -1.007593 -13.392678 -33.838509 27.627944 -39.178218 0.413347 -40.661530 0.282462 -7.786411 11.054239 2.363449 40.109893 -15.297189 -0.360523 5.639886 28.097916 11.338824 0.000000 -0.000001 0.000005 6.882230 2.840064 -61.140445 8.247999 7.640044 -89.897878 -0.000002 -0.000001 -0.000002 -2.345556 4.688874 -62.655217 8.754125 9.897099 -87.051294 0.000003 0.000000 0.000000 -9.042480 10.045649 -60.766171 8.524062 9.508853 -66.893035 0.000000 -0.000001 -0.000001 -17.946949 14.755029 -51.485877 8.868465 8.667023 -84.812016 0.000002 -0.000001 0.000001 -0.000001 0.000001 -0.000001 0.850311 5.989489 10.951197 10.459952 -14.071534 46.949354 -20.112078 25.509990 12.571276 -27.766230 -1.841018 -8.075766 0.710580 -6.633795 14.838740 2.450750 -24.160672 -8.846658 -0.000001 -0.000001 -0.000002 0.185964 2.803482 -13.583028 0.158209 -1.018802 11.560794 -0.000001 0.000001 0.000005 0.335682 -4.871664 -3.797861 1.453304 -4.275006 23.983280 0.000000 0.000001 -0.000000 1.307183 -11.823449 5.426405 1.926048 -4.078750 28.711574 0.000001 0.000001 0.000002 2.223553 -19.421069 13.070316 3.400107 -2.436878 20.054359 0.000000 -0.000001 0.000002 0.000000 -0.000004 -0.000002 0.000001 -0.000000 0.000000 0.000001 -0.000000 0.000000 0.000001 -0.000000 0.000000 0.000001 -0.000000 0.000000 0.000001 -0.000000 0.000000 0.000001 0.000001 -0.000001 0.000001 -0.000000 0.000000 0.000001 -0.000000 0.000000 0.000001 0.000001 -0.000001 0.000000 -0.000001 0.000000 0.000000 -0.000001 0.000000 0.000000 -0.000000 0.000000 
